<svg xmlns="http://www.w3.org/2000/svg" width="400" height="79" viewBox="0 0 400 79">
    <g fill="none" fill-rule="evenodd">
        <path fill="none" d="M0 0h400v79H0z"/>
        <path fill="#3577FF" fill-rule="nonzero" d="M66.996 54.683L71 36.448l-4.024-18.213-13.757-12.61L35.541 0 17.72 5.666 4.024 18.193 0 36.531l4.004 18.214 13.777 12.61L35.54 73l4.024-1.751-1.97-7.953 1.888-8.613L35.5 36.469l13.736 12.59 9.075 2.884 5.38 4.8 3.305-2.06zm-45.19 5.666l-17.74-5.645L8.048 36.51 4.065 18.317l13.593 12.465 17.74 5.646-4.004 18.255 3.962 18.111-13.55-12.445zm13.653-23.942l-13.757-12.61L4.23 18.236l17.534-5.584L35.5.06l.02.021-3.983 18.132 3.984 18.193h-.062zm17.76 5.646l-17.616-5.605 4.003-18.213L35.664.206 49.215 12.63l17.74 5.646-3.983 18.193 3.983 18.173-13.736-12.59z"/>
        <g fill="#000" fill-rule="nonzero">
            <path d="M36.363 63.8c0-2.12.37-4.06 1.087-5.84.717-1.78 1.721-3.32 3.013-4.6 1.291-1.3 2.829-2.3 4.632-3.04 1.804-.74 3.793-1.1 5.965-1.1 2.173 0 4.161.36 5.965 1.1 1.804.74 3.362 1.74 4.633 3.04a13.702 13.702 0 0 1 3.013 4.6c.718 1.78 1.087 3.72 1.087 5.84 0 2.12-.37 4.08-1.087 5.86-.717 1.8-1.722 3.34-3.013 4.62-1.291 1.3-2.829 2.3-4.633 3.02-1.804.72-3.792 1.08-5.965 1.08-2.172 0-4.16-.36-5.965-1.08-1.803-.72-3.361-1.72-4.632-3.02-1.292-1.3-2.296-2.84-3.013-4.62-.718-1.78-1.087-3.74-1.087-5.86zm2.665 0c0 1.72.287 3.34.84 4.82a11.381 11.381 0 0 0 2.42 3.88c1.045 1.1 2.315 1.96 3.791 2.58 1.497.62 3.157.94 5.002.94 1.845 0 3.526-.32 5.001-.94 1.497-.62 2.747-1.48 3.793-2.58 1.045-1.1 1.844-2.4 2.418-3.88.554-1.48.84-3.1.84-4.82 0-1.72-.286-3.34-.84-4.82a11.381 11.381 0 0 0-2.418-3.88c-1.046-1.1-2.317-1.96-3.793-2.58-1.475-.62-3.156-.94-5.001-.94-1.845 0-3.526.32-5.002.94-1.496.62-2.746 1.48-3.792 2.58-1.045 1.1-1.845 2.4-2.419 3.88-.574 1.48-.84 3.1-.84 4.82zM73.752 49.92h3.423l17.32 24.3h.083v-24.3h2.644v27.76H93.8l-17.32-24.3h-.083v24.3h-2.644V49.92zM130.45 73.32c-1.374 1.8-2.952 3.1-4.735 3.88-1.804.78-3.731 1.18-5.822 1.18-2.173 0-4.161-.36-5.965-1.08-1.804-.72-3.362-1.72-4.632-3.02-1.292-1.3-2.296-2.84-3.014-4.62-.717-1.78-1.086-3.74-1.086-5.86s.369-4.06 1.086-5.84c.718-1.78 1.722-3.32 3.014-4.6 1.29-1.3 2.828-2.3 4.632-3.04 1.804-.74 3.792-1.1 5.965-1.1 1.927 0 3.73.34 5.412 1 1.68.66 3.136 1.78 4.407 3.36l-2.173 1.76c-.882-1.3-2.009-2.26-3.403-2.86-1.373-.6-2.788-.9-4.243-.9-1.845 0-3.526.32-5.001.94-1.476.62-2.747 1.48-3.793 2.58-1.045 1.1-1.844 2.4-2.418 3.88-.554 1.48-.84 3.1-.84 4.82 0 1.72.286 3.34.84 4.82a11.381 11.381 0 0 0 2.418 3.88c1.046 1.1 2.317 1.96 3.793 2.58 1.496.62 3.156.94 5.001.94.718 0 1.476-.08 2.255-.26.779-.16 1.537-.44 2.275-.78.738-.36 1.435-.8 2.111-1.34a8.553 8.553 0 0 0 1.763-1.94l2.153 1.62zM135.472 63.8c0-2.12.369-4.06 1.086-5.84.718-1.78 1.722-3.32 3.013-4.6 1.292-1.3 2.829-2.3 4.633-3.04 1.804-.74 3.792-1.1 5.965-1.1s4.16.36 5.965 1.1c1.804.74 3.361 1.74 4.632 3.04a13.702 13.702 0 0 1 3.014 4.6c.717 1.78 1.086 3.72 1.086 5.84 0 2.12-.369 4.08-1.086 5.86-.718 1.8-1.722 3.34-3.014 4.62-1.291 1.3-2.828 2.3-4.632 3.02-1.804.72-3.792 1.08-5.965 1.08s-4.161-.36-5.965-1.08c-1.804-.72-3.362-1.72-4.633-3.02-1.291-1.3-2.295-2.84-3.013-4.62-.738-1.78-1.086-3.74-1.086-5.86zm2.644 0c0 1.72.287 3.34.84 4.82a11.381 11.381 0 0 0 2.42 3.88c1.045 1.1 2.315 1.96 3.791 2.58 1.497.62 3.157.94 5.002.94 1.845 0 3.526-.32 5.001-.94 1.497-.62 2.747-1.48 3.793-2.58 1.045-1.1 1.844-2.4 2.418-3.88.574-1.48.84-3.1.84-4.82 0-1.72-.286-3.34-.84-4.82a11.381 11.381 0 0 0-2.418-3.88c-1.046-1.1-2.317-1.96-3.793-2.58-1.475-.62-3.156-.94-5.001-.94-1.845 0-3.526.32-5.002.94-1.476.62-2.746 1.48-3.792 2.58-1.045 1.1-1.845 2.4-2.419 3.88-.553 1.48-.84 3.1-.84 4.82zM197.601 75.72a23.087 23.087 0 0 1-5.78 2.04c-2.009.42-4.059.62-6.15.62-2.213 0-4.263-.34-6.149-1.02-1.865-.68-3.505-1.66-4.858-2.92-1.373-1.26-2.44-2.8-3.198-4.6-.758-1.8-1.148-3.82-1.148-6.04s.39-4.24 1.148-6.04c.759-1.8 1.825-3.34 3.198-4.6 1.373-1.26 2.993-2.24 4.858-2.92 1.865-.68 3.915-1.02 6.15-1.02 2.275 0 4.366.26 6.293.8 1.906.54 3.587 1.46 5.042 2.76l-4.428 4.7c-.86-.86-1.824-1.52-2.89-1.96-1.066-.44-2.419-.66-4.017-.66-1.333 0-2.563.22-3.629.66a8.05 8.05 0 0 0-2.787 1.86 8.03 8.03 0 0 0-1.784 2.84c-.41 1.1-.615 2.28-.615 3.56 0 1.3.205 2.5.615 3.58a8.127 8.127 0 0 0 1.784 2.82 8.05 8.05 0 0 0 2.787 1.86c1.087.44 2.296.66 3.629.66 1.373 0 2.541-.14 3.546-.44.984-.3 1.783-.6 2.378-.92v-4.5h-5.104V61.2h11.13v14.52h-.02zM205.35 49.92h19.33v5.64h-13.058v5.18h12.34v5.64h-12.34v5.64h13.775v5.64H205.35V49.92zM232.428 49.92h8.527l12.094 19.3h.082v-19.3h6.272v27.76h-8.199l-12.422-19.76h-.082v19.76h-6.272zM265.676 63.8c0-2.22.39-4.24 1.148-6.04.758-1.8 1.824-3.34 3.197-4.6 1.374-1.26 2.993-2.24 4.858-2.92 1.866-.68 3.916-1.02 6.15-1.02 2.214 0 4.263.34 6.15 1.02 1.865.68 3.504 1.66 4.857 2.92 1.374 1.26 2.44 2.8 3.198 4.6.759 1.8 1.148 3.82 1.148 6.04s-.39 4.24-1.148 6.04c-.758 1.8-1.824 3.34-3.198 4.6-1.373 1.26-2.992 2.24-4.858 2.92-1.865.68-3.915 1.02-6.15 1.02-2.213 0-4.263-.34-6.149-1.02-1.865-.68-3.505-1.66-4.858-2.92-1.373-1.26-2.439-2.8-3.197-4.6-.78-1.8-1.148-3.82-1.148-6.04zm6.498 0c0 1.3.205 2.5.615 3.58a8.127 8.127 0 0 0 1.783 2.82 8.05 8.05 0 0 0 2.788 1.86c1.086.44 2.295.66 3.628.66 1.332 0 2.562-.22 3.628-.66a8.05 8.05 0 0 0 2.788-1.86 8.127 8.127 0 0 0 1.783-2.82c.41-1.08.615-2.28.615-3.58 0-1.28-.205-2.46-.615-3.56a8.03 8.03 0 0 0-1.783-2.84 8.05 8.05 0 0 0-2.788-1.86c-1.086-.44-2.296-.66-3.628-.66-1.333 0-2.542.22-3.628.66a8.05 8.05 0 0 0-2.788 1.86 8.03 8.03 0 0 0-1.783 2.84c-.41 1.08-.615 2.28-.615 3.56zM308.148 55.34h-8.117v-5.42h22.507v5.42h-8.118v22.34h-6.272V55.34zM327.95 49.92h19.329v5.64h-13.057v5.18h12.34v5.64h-12.34v5.64h13.774v5.64H327.95zM369.11 56.7c-.513-.62-1.21-1.1-2.071-1.4-.86-.3-1.701-.46-2.48-.46-.451 0-.923.06-1.415.16s-.943.26-1.373.5c-.43.24-.779.52-1.045.88-.267.36-.41.82-.41 1.34 0 .84.328 1.48.963 1.92.635.44 1.455.82 2.44 1.14.983.32 2.029.62 3.156.94 1.127.32 2.173.76 3.157 1.34a7.419 7.419 0 0 1 2.439 2.32c.635.96.963 2.26.963 3.88 0 1.54-.287 2.88-.881 4.04a8.237 8.237 0 0 1-2.398 2.86c-1.005.76-2.173 1.32-3.505 1.68-1.333.36-2.727.54-4.203.54-1.844 0-3.566-.28-5.145-.82-1.578-.54-3.054-1.44-4.427-2.66l4.468-4.78c.636.84 1.456 1.48 2.44 1.94.984.46 1.988.68 3.033.68.513 0 1.025-.06 1.538-.18.533-.12.984-.3 1.414-.52.41-.24.759-.54 1.005-.9.246-.36.389-.8.389-1.3 0-.84-.328-1.5-.984-1.98-.656-.48-1.476-.9-2.48-1.24-.984-.34-2.07-.68-3.218-1.02a14.8 14.8 0 0 1-3.219-1.38 7.86 7.86 0 0 1-2.48-2.28c-.656-.94-.984-2.18-.984-3.72 0-1.48.308-2.8.902-3.92a8.536 8.536 0 0 1 2.419-2.82c1.004-.76 2.173-1.32 3.485-1.7 1.311-.38 2.664-.56 4.058-.56 1.6 0 3.157.22 4.653.66 1.497.44 2.85 1.18 4.059 2.24l-4.264 4.58zM385.63 55.34h-8.116v-5.42H400v5.42h-8.117v22.34h-6.273V55.34z"/>
        </g>
    </g>
</svg>
