<?xml version="1.0" encoding="iso-8859-1"?>
<!-- Generator: Adobe Illustrator 19.0.0, SVG Export Plug-In . SVG Version: 6.00 Build 0)  -->
<svg version="1.1" id="Layer_1" xmlns="http://www.w3.org/2000/svg" xmlns:xlink="http://www.w3.org/1999/xlink" x="0px" y="0px"
	 viewBox="0 0 512 512" style="enable-background:new 0 0 512 512;" xml:space="preserve">
<rect x="160.026" y="346.352" style="fill:#053847;" width="202.175" height="32.681"/>
<path style="fill:#127C8D;" d="M388.586,175.995l-73.231-41.736h-43.57v75.816h43.573l35.946,20.381v207.027l65.799-21.787V225.302
	C417.103,207.206,404.271,185.019,388.586,175.995z"/>
<rect x="195.017" y="8.17" style="fill:#053847;" width="65.721" height="76.143"/>
<path style="fill:#4BBCD6;" d="M132.264,415.696c-17.974,0-38.478,13.516-45.564,30.035L61.778,503.83h355.326v-88.134H132.264z"/>
<circle style="fill:#053847;" cx="417.105" cy="346.352" r="33.118"/>
<rect x="173.088" y="84.317" style="fill:#4BBCD6;" width="109.59" height="180.54"/>
<g>
	<rect x="178.644" y="264.857" style="fill:#053847;" width="32.899" height="44.849"/>
	<rect x="244.223" y="264.857" style="fill:#053847;" width="32.899" height="44.849"/>
</g>
<g>
	<path style="fill:#3E0412;" d="M160.023,273.021h10.451v36.678c0,4.512,3.658,8.17,8.17,8.17h32.9c4.512,0,8.17-3.658,8.17-8.17
		v-36.678h16.34v36.678c0,4.512,3.658,8.17,8.17,8.17h32.899c4.512,0,8.17-3.658,8.17-8.17v-36.678h10.451
		c4.512,0,8.17-3.658,8.17-8.17c0-4.512-3.658-8.17-8.17-8.17h-4.895V142.43h22.34l71.322,40.647
		c13.237,7.616,24.42,26.953,24.42,42.225v55.257c0,4.512,3.658,8.17,8.17,8.17c4.512,0,8.17-3.658,8.17-8.17v-55.257
		c0-21.098-14.325-45.866-32.641-56.405l-73.231-41.736c-1.232-0.703-2.626-1.072-4.045-1.072H290.85V84.313
		c0-4.512-3.658-8.17-8.17-8.17h-13.763V8.17c0-4.512-3.658-8.17-8.17-8.17h-65.726c-4.512,0-8.17,3.658-8.17,8.17v67.973h-13.763
		c-4.512,0-8.17,3.658-8.17,8.17v172.369h-4.895c-4.512,0-8.17,3.658-8.17,8.17C151.853,269.364,155.51,273.021,160.023,273.021z
		 M203.373,301.529h-16.559v-28.508h16.559L203.373,301.529L203.373,301.529z M252.394,301.529v-28.508h16.558v28.508H252.394z
		 M203.19,16.34h49.385v59.803H203.19V16.34z M274.51,92.484v164.198h-93.252V92.484H274.51z"/>
	<path style="fill:#3E0412;" d="M458.392,346.357c0-22.767-18.521-41.288-41.288-41.288c-22.766,0-41.288,18.521-41.288,41.288
		c0,19.969,14.252,36.67,33.118,40.473V495.66H74.173l20.036-46.709c5.832-13.597,23.261-25.085,38.056-25.085h251.722
		c4.512,0,8.17-3.658,8.17-8.17c0-4.512-3.658-8.17-8.17-8.17h-24.511V230.457c0-2.941-1.582-5.656-4.141-7.107l-35.946-20.381
		c-3.926-2.224-8.911-0.849-11.138,3.077c-2.226,3.925-0.848,8.911,3.077,11.138l31.805,18.033v102.971H160.023
		c-4.512,0-8.17,3.658-8.17,8.17v32.681c0,4.512,3.658,8.17,8.17,8.17h158.601c4.512,0,8.17-3.658,8.17-8.17
		c0-4.512-3.658-8.17-8.17-8.17H168.193v-16.34h174.942v52.999H132.264c-21.345,0-44.657,15.367-53.073,34.984L54.27,500.61
		c-1.083,2.524-0.825,5.424,0.687,7.717S59.032,512,61.779,512h355.326c4.512,0,8.17-3.658,8.17-8.17v-117
		C444.139,383.027,458.392,366.327,458.392,346.357z M417.103,371.305c-13.755,0-24.947-11.191-24.947-24.947
		c0-13.756,11.191-24.947,24.947-24.947c13.756,0,24.947,11.191,24.947,24.947C442.051,360.114,430.859,371.305,417.103,371.305z"/>
</g>
<g>
</g>
<g>
</g>
<g>
</g>
<g>
</g>
<g>
</g>
<g>
</g>
<g>
</g>
<g>
</g>
<g>
</g>
<g>
</g>
<g>
</g>
<g>
</g>
<g>
</g>
<g>
</g>
<g>
</g>
</svg>
