<svg height="512" viewBox="0 0 60 60" width="512" xmlns="http://www.w3.org/2000/svg"><g id="017---Chromosomes" fill="none"><g id="Icons" transform="translate(1)"><path id="Shape" d="m38 22c-.0009771-1.2074867-.7257865-2.2966989-1.8392238-2.7639059s-2.3984583-.2213355-3.2607762.6239059c-.389338.3929099-.6656804.8834178-.8 1.42-.26 1 .33 6.11-3.1 12.31-1.9597443-3.5491791-2.9916354-7.5357183-3-11.59 0-1.6568542-1.3431458-3-3-3s-3 1.3431458-3 3c.0132532 6.0682611 1.8530907 11.9919803 5.28 17-3.4269093 5.0080197-5.2667468 10.9317389-5.28 17 0 1.6568542 1.3431458 3 3 3s3-1.3431458 3-3c.0083646-4.0542817 1.0402557-8.0408209 3-11.59 3.41 6.18 2.85 11.3 3.1 12.31.1804696.7634527.659557 1.4226482 1.33 1.83.9247487.5679366 2.0841233.5921746 3.0318003.0633833.947677-.5287914 1.5358918-1.5281613 1.5381997-2.6133833-.0132532-6.0682611-1.8530907-11.9919803-5.28-17 3.4269093-5.0080197 5.2667468-10.9317389 5.28-17z" fill="#02a9f4"/><path id="Shape" d="m18 4c-.0009771-1.20748672-.7257865-2.29669887-1.8392238-2.76390591s-2.3984583-.22133547-3.2607762.62390591c-.389338.39290988-.6656804.88341778-.8 1.42-.26 1 .33 6.11-3.1 12.31-1.95974435-3.5491791-2.99163543-7.5357183-3-11.59-.00000004-1.65685422-1.34314578-2.99999992-3-2.99999992s-2.99999996 1.3431457-3 2.99999992c.01325325 6.0682611 1.85309073 11.9919803 5.28 17-3.42690927 5.0080197-5.26674675 10.9317389-5.28 17 .00000003 1.6568542 1.34314578 2.9999999 3 2.9999999s2.99999997-1.3431457 3-2.9999999c.00836457-4.0542817 1.04025565-8.0408209 3-11.59 3.41 6.18 2.85 11.3 3.1 12.31.1804696.7634527.659557 1.4226482 1.33 1.83.9247487.5679366 2.0841233.5921746 3.0318003.0633833.947677-.5287914 1.5358918-1.5281613 1.5381997-2.6133833-.0132532-6.0682611-1.8530907-11.9919803-5.28-17 3.4269093-5.0080197 5.2667468-10.9317389 5.28-17z" fill="#9d27b0"/><path id="Shape" d="m58 4c-.0009771-1.20748672-.7257865-2.29669887-1.8392238-2.76390591s-2.3984583-.22133547-3.2607762.62390591c-.389338.39290988-.6656804.88341778-.8 1.42-.26 1 .33 6.11-3.1 12.31-1.9597443-3.5491791-2.9916354-7.5357183-3-11.59 0-1.65685425-1.3431458-3-3-3s-3 1.34314575-3 3c.0132532 6.0682611 1.8530907 11.9919803 5.28 17-3.4269093 5.0080197-5.2667468 10.9317389-5.28 17 0 1.6568542 1.3431458 3 3 3s3-1.3431458 3-3c.0083646-4.0542817 1.0402557-8.0408209 3-11.59 3.41 6.18 2.85 11.3 3.1 12.31.1804696.7634527.659557 1.4226482 1.33 1.83.9247487.5679366 2.0841233.5921746 3.0318003.0633833.947677-.5287914 1.5358918-1.5281613 1.5381997-2.6133833-.0132532-6.0682611-1.8530907-11.9919803-5.28-17 3.4269093-5.0080197 5.2667468-10.9317389 5.28-17z" fill="#ff9801"/><path id="Shape" d="m52.72 21c3.4269093 5.0080197 5.2667468 10.9317389 5.28 17 .0006877 1.0721404-.5708375 2.0631514-1.4991666 2.5995194-.9283291.5363679-2.0723325.5365511-3.0008334.0004806.9287987-.5362419 1.5006876-1.527516 1.5-2.6-.0132532-6.0682611-1.8530907-11.9919803-5.28-17 3.4269093-5.0080197 5.2667468-10.9317389 5.28-17 .0006876-1.07248401-.5712013-2.06375811-1.5-2.6.9285009-.53607053 2.0725043-.5358873 3.0008334.00048064.9283291.53636793 1.4998543 1.52737896 1.4991666 2.59951936-.0132532 6.0682611-1.8530907 11.9919803-5.28 17z" fill="#f57c00"/><path id="Shape" d="m30 4.5c-.0017685 1.72674187-1.2660054 3.19261038-2.9737525 3.44803259-1.707747.25542222-3.345555-.7763968-3.8524705-2.42705645s.2694701-3.42387449 1.826223-4.17097614c1.0826823-.50765225 2.3493268-.42918452 3.3610738.20821613 1.0117471.63740066 1.629388 1.74603274 1.6389262 2.94178387z" fill="#00bcd4"/><circle id="Oval" cx="34.5" cy="11.5" fill="#00838f" r="2.5"/><path id="Shape" d="m14 49.5c-.0017685 1.7267419-1.2660054 3.1926104-2.9737525 3.4480326-1.70774705.2554222-3.34555502-.7763968-3.85247053-2.4270565-.50691551-1.6506596.26947008-3.4238745 1.82622303-4.1709761 1.0826823-.5076522 2.3493268-.4291845 3.3610738.2082161 1.0117471.6374007 1.629388 1.7460328 1.6389262 2.9417839z" fill="#00bcd4"/><circle id="Oval" cx="2.5" cy="56.5" fill="#00838f" r="2.5"/><path id="Shape" d="m52 47.5c-.0017685 1.7267419-1.2660054 3.1926104-2.9737525 3.4480326-1.707747.2554222-3.345555-.7763968-3.8524705-2.4270565-.5069155-1.6506596.2694701-3.4238745 1.826223-4.1709761 1.0826823-.5076522 2.3493268-.4291845 3.3610738.2082161 1.0117471.6374007 1.629388 1.7460328 1.6389262 2.9417839z" fill="#00838f"/><path id="Shape" d="m47 50.65c-1.2211372-.5734132-2.0008448-1.8009341-2.0008448-3.15s.7797076-2.5765868 2.0008448-3.15c1.2211372.5734132 2.0008448 1.8009341 2.0008448 3.15s-.7797076 2.5765868-2.0008448 3.15z" fill="#00bcd4"/><circle id="Oval" cx="54.5" cy="56.5" fill="#00838f" r="2.5"/></g><g id="Layer_2" fill="#000"><path id="Shape" d="m20 22c.0221367 6.0374481 1.7860333 11.9402517 5.08 17-3.2939667 5.0597483-5.0578633 10.9625519-5.08 17 0 2.209139 1.790861 4 4 4s4-1.790861 4-4c.0043261-3.2223577.6857143-6.4078476 2-9.35 1.3142857 2.9421524 1.9956739 6.1276423 2 9.35 0 2.209139 1.790861 4 4 4s4-1.790861 4-4c-.0221367-6.0374481-1.7860333-11.9402517-5.08-17 3.2939667-5.0597483 5.0578633-10.9625519 5.08-17 0-2.209139-1.790861-4-4-4s-4 1.790861-4 4c-.0043261 3.2223577-.6857143 6.4078476-2 9.35-1.3142857-2.9421524-1.9956739-6.1276423-2-9.35 0-2.209139-1.790861-4-4-4s-4 1.790861-4 4zm14 0c0-1.1045695.8954305-2 2-2s2 .8954305 2 2c-.0182984 5.8635109-1.7948386 11.586757-5.1 16.43-.2378071.3427946-.2378071.7972054 0 1.14 3.3051614 4.843243 5.0817016 10.5664891 5.1 16.43 0 1.1045695-.8954305 2-2 2s-2-.8954305-2-2c-.0073385-4.1306175-1.0380502-8.1950573-3-11.83v-10.34c1.9619498-3.6349427 2.9926615-7.6993825 3-11.83zm-10-2c1.1045695 0 2 .8954305 2 2 .0073385 4.1306175 1.0380502 8.1950573 3 11.83v10.34c-1.9619498 3.6349427-2.9926615 7.6993825-3 11.83 0 1.1045695-.8954305 2-2 2s-2-.8954305-2-2c.0182984-5.8635109 1.7948386-11.586757 5.1-16.43.2378071-.3427946.2378071-.7972054 0-1.14-3.3051614-4.843243-5.0817016-10.5664891-5.1-16.43 0-.530433.2107137-1.0391408.5857864-1.4142136.3750728-.3750727.8837806-.5857864 1.4142136-.5857864z"/><path id="Shape" d="m4 42c2.209139 0 4-1.790861 4-4 .00432608-3.2223577.68571431-6.4078476 2-9.35 1.3142857 2.9421524 1.9956739 6.1276423 2 9.35 0 2.209139 1.790861 4 4 4s4-1.790861 4-4c-.0221367-6.0374481-1.7860333-11.9402517-5.08-17 3.2939667-5.0597483 5.0578633-10.9625519 5.08-17 0-2.209139-1.790861-4-4-4s-4 1.790861-4 4c-.0043261 3.22235765-.6857143 6.4078476-2 9.35-1.31428569-2.9421524-1.99567392-6.12764235-2-9.35-.00000008-2.20913894-1.79086106-3.99999985-4-3.99999985s-3.99999992 1.79086091-4 3.99999985c.02213669 6.0374481 1.78603328 11.9402517 5.08 17-3.29396672 5.0597483-5.05786331 10.9625519-5.08 17 0 2.209139 1.790861 4 4 4zm10-38c0-1.1045695.8954305-2 2-2s2 .8954305 2 2c-.0182984 5.86351087-1.7948386 11.586757-5.1 16.43-.2378071.3427946-.2378071.7972054 0 1.14 3.3051614 4.843243 5.0817016 10.5664891 5.1 16.43 0 1.1045695-.8954305 2-2 2s-2-.8954305-2-2c-.0073385-4.1306175-1.0380502-8.1950573-3-11.83v-10.34c1.9619498-3.6349427 2.9926615-7.69938246 3-11.83zm-6.9 17.57c.23780708-.3427946.23780708-.7972054 0-1.14-3.30516138-4.843243-5.08170156-10.56648913-5.1-16.43 0-1.1045695.8954305-2 2-2s2 .8954305 2 2c.0073385 4.13061754 1.0380502 8.1950573 3 11.83v10.34c-1.9619498 3.6349427-2.9926615 7.6993825-3 11.83 0 1.1045695-.8954305 2-2 2s-2-.8954305-2-2c.01829844-5.8635109 1.79483862-11.586757 5.1-16.43z"/><path id="Shape" d="m56 0c-2.209139 0-4 1.790861-4 4-.0043261 3.22235765-.6857143 6.4078476-2 9.35-1.3142857-2.9421524-1.9956739-6.12764235-2-9.35 0-2.209139-1.790861-4-4-4s-4 1.790861-4 4c.0221367 6.0374481 1.7860333 11.9402517 5.08 17-3.2939667 5.0597483-5.0578633 10.9625519-5.08 17 0 2.209139 1.790861 4 4 4s4-1.790861 4-4c.0043261-3.2223577.6857143-6.4078476 2-9.35 1.3142857 2.9421524 1.9956739 6.1276423 2 9.35 0 2.209139 1.790861 4 4 4s4-1.790861 4-4c-.0221367-6.0374481-1.7860333-11.9402517-5.08-17 3.2939667-5.0597483 5.0578633-10.9625519 5.08-17 0-2.209139-1.790861-4-4-4zm-10 38c0 1.1045695-.8954305 2-2 2s-2-.8954305-2-2c.0182984-5.8635109 1.7948386-11.586757 5.1-16.43.2378071-.3427946.2378071-.7972054 0-1.14-3.3051614-4.843243-5.0817016-10.56648913-5.1-16.43 0-1.1045695.8954305-2 2-2s2 .8954305 2 2c.0073385 4.13061754 1.0380502 8.1950573 3 11.83v10.34c-1.9619498 3.6349427-2.9926615 7.6993825-3 11.83zm6.9-17.57c-.2378071.3427946-.2378071.7972054 0 1.14 3.3051614 4.843243 5.0817016 10.5664891 5.1 16.43 0 1.1045695-.8954305 2-2 2s-2-.8954305-2-2c-.0073385-4.1306175-1.0380502-8.1950573-3-11.83v-10.34c1.9619498-3.6349427 2.9926615-7.69938246 3-11.83 0-1.1045695.8954305-2 2-2s2 .8954305 2 2c-.0182984 5.86351087-1.7948386 11.586757-5.1 16.43z"/><path id="Shape" d="m27.5 0c-2.4852814 0-4.5 2.01471863-4.5 4.5s2.0147186 4.5 4.5 4.5 4.5-2.01471863 4.5-4.5c-.0054995-2.48299985-2.0170001-4.49450053-4.5-4.5zm0 7c-1.3807119 0-2.5-1.11928813-2.5-2.5s1.1192881-2.5 2.5-2.5 2.5 1.11928813 2.5 2.5c0 .66304122-.2633921 1.29892601-.732233 1.76776695-.468841.46884095-1.1047258.73223305-1.767767.73223305z"/><path id="Shape" d="m35.5 15c1.9329966 0 3.5-1.5670034 3.5-3.5 0-1.93299662-1.5670034-3.5-3.5-3.5s-3.5 1.56700338-3.5 3.5c0 1.9329966 1.5670034 3.5 3.5 3.5zm0-5c.8284271 0 1.5.6715729 1.5 1.5s-.6715729 1.5-1.5 1.5-1.5-.6715729-1.5-1.5.6715729-1.5 1.5-1.5z"/><path id="Shape" d="m11.5 45c-2.48528137 0-4.5 2.0147186-4.5 4.5s2.01471863 4.5 4.5 4.5c2.4852814 0 4.5-2.0147186 4.5-4.5-.0054995-2.4829999-2.0170001-4.4945005-4.5-4.5zm0 7c-1.3807119 0-2.5-1.1192881-2.5-2.5s1.1192881-2.5 2.5-2.5 2.5 1.1192881 2.5 2.5c0 .6630412-.2633921 1.298926-.732233 1.767767-.468841.4688409-1.1047258.732233-1.767767.732233z"/><path id="Shape" d="m3.5 60c1.93299662 0 3.5-1.5670034 3.5-3.5s-1.56700338-3.5-3.5-3.5-3.5 1.5670034-3.5 3.5 1.56700338 3.5 3.5 3.5zm0-5c.82842712 0 1.5.6715729 1.5 1.5s-.67157288 1.5-1.5 1.5-1.5-.6715729-1.5-1.5.67157288-1.5 1.5-1.5z"/><path id="Shape" d="m49.5 43c-2.4852814 0-4.5 2.0147186-4.5 4.5s2.0147186 4.5 4.5 4.5 4.5-2.0147186 4.5-4.5c-.0054995-2.4829999-2.0170001-4.4945005-4.5-4.5zm0 7c-1.3807119 0-2.5-1.1192881-2.5-2.5s1.1192881-2.5 2.5-2.5 2.5 1.1192881 2.5 2.5-1.1192881 2.5-2.5 2.5z"/><path id="Shape" d="m55.5 60c1.9329966 0 3.5-1.5670034 3.5-3.5s-1.5670034-3.5-3.5-3.5-3.5 1.5670034-3.5 3.5c0 .9282577.3687489 1.8184964 1.0251263 2.4748737.6563773.6563774 1.546616 1.0251263 2.4748737 1.0251263zm0-5c.8284271 0 1.5.6715729 1.5 1.5s-.6715729 1.5-1.5 1.5-1.5-.6715729-1.5-1.5.6715729-1.5 1.5-1.5z"/></g></g></svg>