<svg id="Capa_1" enable-background="new 0 0 512 512" height="512" viewBox="0 0 512 512" width="512" xmlns="http://www.w3.org/2000/svg"><g><g><path d="m474.933 180.212h-143.145v-143.145c0-8.371-6.786-15.158-15.158-15.158h-121.261c-8.371 0-15.158 6.786-15.158 15.158v143.145h-143.144c-8.371 0-15.158 6.786-15.158 15.158v121.26c0 8.371 6.786 15.158 15.158 15.158h143.145v143.145c0 8.371 6.786 15.158 15.158 15.158h121.26c8.371 0 15.158-6.786 15.158-15.158v-143.145h143.145c8.371 0 15.158-6.786 15.158-15.158v-121.261c0-8.371-6.787-15.157-15.158-15.157z" fill="#fdcbc6"/></g><g><g><path d="m474.933 180.212h-27.413v93.848c0 8.371-6.786 15.158-15.158 15.158h-116.498c-14.716 0-26.646 11.93-26.646 26.646v116.499c0 8.371-6.786 15.158-15.158 15.158h-93.848v27.413c0 8.371 6.786 15.158 15.158 15.158h121.261c8.371 0 15.157-6.786 15.157-15.157v-143.147h143.145c8.371 0 15.158-6.786 15.158-15.158v-121.261c0-8.371-6.787-15.157-15.158-15.157z" fill="#ffa698"/></g></g><g><g><path d="m316.63 504.471h-121.26c-16.288 0-29.539-13.251-29.539-29.538v-128.764h-128.764c-16.287 0-29.538-13.251-29.538-29.539v-121.26c0-16.288 13.251-29.539 29.538-29.539h128.763v-128.764c0-16.287 13.251-29.538 29.539-29.538h121.26c16.288 0 29.539 13.251 29.539 29.538v128.763h128.763c16.287 0 29.538 13.251 29.538 29.539v121.26c0 16.288-13.251 29.539-29.538 29.539h-128.762v128.763c0 16.289-13.251 29.54-29.539 29.54zm-279.563-309.878c-.429 0-.776.348-.776.776v121.261c0 .429.348.777.777.777h149.19c4.603 0 8.334 3.731 8.334 8.334v149.191c0 .429.348.776.776.776h121.262c.429 0 .776-.348.776-.776v-149.191c0-4.603 3.731-8.334 8.334-8.334h149.19c.429 0 .777-.348.777-.777v-121.26c0-.429-.348-.777-.777-.777h-149.19c-4.603 0-8.334-3.731-8.334-8.334v-149.192c0-.429-.348-.776-.776-.776h-121.26c-.429 0-.777.348-.777.777v149.19c0 4.603-3.731 8.334-8.334 8.334h-149.192z" fill="#fc6b55"/></g></g><g><g><path d="m486.604 168.239c1.547 3.582 2.409 7.528 2.409 11.672v135.742c0 8.316-6.742 15.058-15.058 15.058h-143.245v143.244c0 8.316-6.742 15.058-15.058 15.058h-135.741c-4.144 0-8.089-.862-11.672-2.409 4.534 10.499 14.986 17.868 27.131 17.868h121.26c16.314 0 29.539-13.225 29.539-29.539v-128.764h128.763c16.314 0 29.538-13.225 29.538-29.538v-121.261c.001-12.145-7.367-22.598-17.866-27.131z" fill="#fc534e"/></g></g><g><path d="m215.715 296.675c-2.952 0-5.632-1.725-6.853-4.412l-16.402-36.066-.656 1.441c-1.222 2.687-3.902 4.412-6.853 4.412h-100.643c-4.159 0-7.529-3.37-7.529-7.529s3.37-7.529 7.529-7.529h95.796l5.503-12.099c1.222-2.687 3.902-4.412 6.853-4.412 2.952 0 5.632 1.725 6.853 4.412l16.402 36.066 39.034-85.834c1.221-2.687 3.902-4.412 6.853-4.412 2.952 0 5.632 1.725 6.853 4.412l25.822 56.78 8.2-18.031c1.221-2.687 3.902-4.412 6.853-4.412 2.952 0 5.632 1.725 6.853 4.412l10.513 23.118h100.994c4.159 0 7.529 3.37 7.529 7.529 0 4.158-3.37 7.529-7.529 7.529h-105.839c-2.952 0-5.632-1.725-6.853-4.412l-5.666-12.46-8.2 18.031c-1.221 2.687-3.902 4.412-6.853 4.412-2.952 0-5.631-1.725-6.853-4.412l-25.822-56.78-39.034 85.834c-1.224 2.687-3.903 4.412-6.855 4.412z"/></g><g><g><path d="m316.63 512h-54.913c-4.159 0-7.529-3.37-7.529-7.529s3.37-7.529 7.529-7.529h54.913c12.137 0 22.011-9.874 22.011-22.01v-128.762c0-4.159 3.37-7.529 7.529-7.529h128.764c12.136 0 22.009-9.874 22.009-22.011v-121.26c0-12.136-9.873-22.01-22.009-22.01h-128.764c-4.159 0-7.529-3.37-7.529-7.529v-128.764c0-12.136-9.874-22.009-22.011-22.009h-121.26c-12.137 0-22.011 9.873-22.011 22.009v76.438c0 4.159-3.37 7.529-7.529 7.529-4.158 0-7.529-3.37-7.529-7.529v-76.438c.001-20.439 16.63-37.067 37.069-37.067h121.26c20.44 0 37.069 16.628 37.069 37.067v121.235h121.235c20.439 0 37.067 16.628 37.067 37.068v121.26c0 20.44-16.628 37.069-37.067 37.069h-121.236v121.234c0 20.439-16.629 37.067-37.068 37.067zm-93.004 0h-28.256c-20.44 0-37.069-16.628-37.069-37.068v-121.234h-121.234c-20.439 0-37.067-16.629-37.067-37.068v-121.26c0-20.44 16.628-37.068 37.067-37.068h121.235v-10.478c0-4.159 3.37-7.529 7.529-7.529s7.529 3.37 7.529 7.529v18.006c0 4.159-3.37 7.529-7.529 7.529h-128.764c-12.136 0-22.009 9.874-22.009 22.01v121.26c0 12.137 9.873 22.011 22.009 22.011h128.763c4.159 0 7.529 3.37 7.529 7.529v128.763c0 12.136 9.874 22.01 22.011 22.01h28.256c4.159 0 7.529 3.37 7.529 7.529s-3.37 7.529-7.529 7.529zm93.005-28.763h-121.262c-4.579 0-8.305-3.726-8.305-8.305v-149.19c0-.444-.362-.806-.806-.806h-149.19c-4.579 0-8.305-3.726-8.305-8.306v-121.262c0-4.579 3.725-8.304 8.304-8.304h149.192c.444 0 .806-.362.806-.806v-149.19c0-4.58 3.726-8.306 8.306-8.306h121.26c4.579 0 8.305 3.725 8.305 8.305v149.192c0 .444.362.806.806.806h149.191c4.579 0 8.305 3.726 8.305 8.305v121.26c0 4.58-3.726 8.306-8.305 8.306h-71.179c-4.159 0-7.529-3.37-7.529-7.529s3.37-7.529 7.529-7.529h64.426v-107.756h-142.438c-8.747 0-15.863-7.116-15.863-15.863v-142.44h-107.757v142.439c0 8.747-7.116 15.863-15.863 15.863h-142.439v107.756h142.438c8.747 0 15.863 7.116 15.863 15.863v142.44h107.756v-142.438c0-8.747 7.116-15.863 15.863-15.863h41.622c4.159 0 7.529 3.37 7.529 7.529 0 4.158-3.37 7.529-7.529 7.529h-41.622c-.444 0-.806.362-.806.806v149.191c.002 4.577-3.724 8.303-8.303 8.303z"/></g></g></g></svg>