<?xml version="1.0" encoding="iso-8859-1"?>
<!-- Generator: Adobe Illustrator 19.0.0, SVG Export Plug-In . SVG Version: 6.00 Build 0)  -->
<svg version="1.1" id="Layer_1" xmlns="http://www.w3.org/2000/svg" xmlns:xlink="http://www.w3.org/1999/xlink" x="0px" y="0px"
	 viewBox="0 0 512 512" style="enable-background:new 0 0 512 512;" xml:space="preserve">
<rect x="10" y="415.999" style="fill:#003582;" width="491.997" height="53.999"/>
<path style="fill:#0092E0;" d="M64.005,118.004v204.41c0,19.884,16.117,36.001,35.998,36.001l0,0
	c19.879-0.001,35.999-16.118,35.999-36.001v-204.41H64.005z"/>
<path style="fill:#FAB617;" d="M168.002,118.004v204.41c0,19.884,16.117,36.001,35.998,36.001l0,0
	c19.879-0.001,35.999-16.118,35.999-36.001v-204.41H168.002z"/>
<path style="fill:#50C405;" d="M272,118.004v204.41c0,19.884,16.117,36.001,35.998,36.001l0,0
	c19.879-0.001,35.999-16.118,35.999-36.001v-204.41H272z"/>
<path style="fill:#CC6BC2;" d="M375.996,118.004v204.41c0,19.884,16.117,36.001,35.998,36.001l0,0
	c19.879-0.001,35.999-16.118,35.999-36.001v-204.41H375.996z"/>
<path d="M187.353,425.993h-0.219c-5.522,0-10-4.477-10-10s4.478-10,10-10h0.219c5.522,0,10,4.477,10,10
	S192.876,425.993,187.353,425.993z"/>
<path d="M109.004,181.25c-5.522,0-10-4.477-10-10v-0.204c0-5.523,4.478-10,10-10s10,4.477,10,10v0.204
	C119.004,176.773,114.526,181.25,109.004,181.25z"/>
<path d="M92.004,282.202c-5.522,0-10-4.477-10-10v-0.204c0-5.523,4.478-10,10-10s10,4.477,10,10v0.204
	C102.004,277.725,97.526,282.202,92.004,282.202z"/>
<path d="M199.669,197.668c-5.522,0-10-4.477-10-10v-0.204c0-5.523,4.478-10,10-10s10,4.477,10,10v0.204
	C209.668,193.191,205.19,197.668,199.669,197.668z"/>
<path d="M213.001,256.536c-5.522,0-10-4.477-10-10v-0.204c0-5.523,4.478-10,10-10s10,4.477,10,10v0.204
	C223.001,252.059,218.523,256.536,213.001,256.536z"/>
<path d="M193.669,312.201c-5.522,0-10-4.477-10-10v-0.204c0-5.523,4.478-10,10-10c5.522,0,10,4.477,10,10v0.204
	C203.668,307.725,199.191,312.201,193.669,312.201z"/>
<path d="M300.332,181.454c-5.522,0-10-4.477-10-10v-0.204c0-5.523,4.478-10,10-10s10,4.477,10,10v0.204
	C310.332,176.977,305.854,181.454,300.332,181.454z"/>
<path d="M316.985,234.204c-5.522,0-10-4.477-10-10V224c0-5.523,4.478-10,10-10s10,4.477,10,10v0.204
	C326.985,229.727,322.508,234.204,316.985,234.204z"/>
<path d="M307.999,314.997c-5.522,0-10-4.477-10-10v-0.204c0-5.523,4.478-10,10-10c5.522,0,10,4.477,10,10v0.204
	C317.998,310.521,313.52,314.997,307.999,314.997z"/>
<path d="M424.315,234.204c-5.522,0-10-4.477-10-10V224c0-5.523,4.478-10,10-10s10,4.477,10,10v0.204
	C434.315,229.727,429.838,234.204,424.315,234.204z"/>
<path d="M417.662,328.535c-5.522,0-10-4.477-10-10v-0.204c0-5.523,4.478-10,10-10s10,4.477,10,10v0.204
	C427.661,324.058,423.183,328.535,417.662,328.535z"/>
<path d="M404.996,286.798c-5.522,0-10-4.477-10-10v-0.204c0-5.523,4.478-10,10-10s10,4.477,10,10v0.204
	C414.996,282.321,410.518,286.798,404.996,286.798z"/>
<path d="M502,405.995h-5.993V128.003H502c5.522,0,10-4.477,10-10s-4.478-10-10-10h-5.993V42.005c0-5.523-4.478-10-10-10
	s-10,4.477-10,10v65.998h-18.014v-29.45c0-5.523-4.478-10-10-10h-71.997c-5.522,0-10,4.477-10,10v29.451h-12.001V78.553
	c0-5.523-4.478-10-10-10h-71.997c-5.522,0-10.001,4.477-10.001,10v29.451h-12V78.553c0-5.523-4.478-10-10-10h-71.997
	c-5.522,0-10.001,4.477-10.001,10v29.451h-12V78.553c0-5.523-4.478-10-10-10H64.006c-5.522,0-10.002,4.477-10.002,10v29.451H36.006
	V42.006c0-5.523-4.478-10-10-10s-10,4.477-10,10v65.998h-5.993c-5.522,0-10,4.477-10,10s4.478,10,10,10h5.993v277.992H10
	c-5.522,0-10,4.477-10,10v54c0,5.523,4.478,10,10,10H502c5.522,0,10-4.477,10-10v-54C512,410.472,507.522,405.995,502,405.995z
	 M385.997,88.553h51.998v19.451h-51.998V88.553z M385.997,128.004h51.998v194.411c0,6.945-2.704,13.475-7.615,18.385
	c-4.911,4.911-11.44,7.616-18.385,7.616c-14.336,0-25.999-11.665-25.999-26.001L385.997,128.004z M282,88.553h51.998v19.451H282
	V88.553z M282,128.004h51.998v194.411c0,6.945-2.704,13.475-7.615,18.385c-4.911,4.911-11.44,7.616-18.385,7.616
	c-14.336,0-25.999-11.665-25.999-26.001L282,128.004z M178.001,88.553H230v19.451h-51.999V88.553z M178.001,128.004H230v194.411
	c0,6.945-2.704,13.475-7.615,18.385c-4.911,4.911-11.44,7.616-18.384,7.616c-14.336,0-25.999-11.665-25.999-26.001V128.004z
	 M74.006,88.553h51.997v19.451H74.006V88.553z M74.005,128.004h51.998v194.411c0,6.945-2.704,13.475-7.615,18.385
	c-4.911,4.911-11.439,7.616-18.383,7.616c-14.337,0-25.999-11.665-25.999-26.001V128.004z M492.001,459.994H19.999v-34h134.094
	c5.522,0,10-4.477,10-10s-4.478-10-10-10H36.006V128.002h17.999v194.411c0,25.364,20.635,46,46,46.001
	c12.286,0,23.837-4.785,32.525-13.474c8.688-8.689,13.474-20.24,13.473-32.528V128.004h12v194.411c0,25.364,20.635,46,45.999,46.001
	c12.287,0,23.838-4.785,32.525-13.474c8.689-8.689,13.475-20.24,13.474-32.528v-194.41h12v194.411c0,25.364,20.635,46,45.999,46.001
	c12.287,0,23.838-4.785,32.525-13.474c8.689-8.689,13.475-20.24,13.474-32.528v-194.41h12.001l-0.001,194.411
	c0,25.364,20.635,46,45.999,46.001c12.287,0,23.838-4.785,32.525-13.474c8.689-8.689,13.475-20.24,13.474-32.528v-194.41h18.014
	v277.992H222.759c-5.522,0-10,4.477-10,10s4.478,10,10,10h269.242L492.001,459.994L492.001,459.994z"/>
<g>
</g>
<g>
</g>
<g>
</g>
<g>
</g>
<g>
</g>
<g>
</g>
<g>
</g>
<g>
</g>
<g>
</g>
<g>
</g>
<g>
</g>
<g>
</g>
<g>
</g>
<g>
</g>
<g>
</g>
</svg>
