<?xml version="1.0" encoding="iso-8859-1"?>
<!-- Generator: Adobe Illustrator 19.0.0, SVG Export Plug-In . SVG Version: 6.00 Build 0)  -->
<svg version="1.1" id="Capa_1" xmlns="http://www.w3.org/2000/svg" xmlns:xlink="http://www.w3.org/1999/xlink" x="0px" y="0px"
	 viewBox="0 0 480 480" style="enable-background:new 0 0 480 480;" xml:space="preserve">
<path style="fill:#F2BA24;" d="M460,48H188c-8.84,0-16,7.16-16,16v384c0,8.84,7.16,16,16,16h272c8.84,0,16-7.16,16-16V64
	C476,55.16,468.84,48,460,48z"/>
<path style="fill:#3D9EEB;" d="M428,80H220V16c0-8.84,7.16-16,16-16h176c8.84,0,16,7.16,16,16V80z"/>
<rect x="292" y="32" style="fill:#F5F5F5;" width="64" height="16"/>
<g>
	<rect x="196" y="264" style="fill:#3D9EEB;" width="120" height="16"/>
	<rect x="196" y="216" style="fill:#3D9EEB;" width="128" height="16"/>
	<rect x="340" y="168" style="fill:#3D9EEB;" width="112" height="16"/>
	<rect x="340" y="120" style="fill:#3D9EEB;" width="112" height="16"/>
	<rect x="196" y="312" style="fill:#3D9EEB;" width="152" height="16"/>
	<path style="fill:#3D9EEB;" d="M300,176h-96v-32c0-8.84,7.16-16,16-16h96v32C316,168.84,308.84,176,300,176z"/>
</g>
<path style="fill:#8F1C8A;" d="M444,272c0-26.512-21.488-48-48-48s-48,21.488-48,48c0,23.776,17.304,43.464,40,47.28V320v24v80
	c0,22.056-17.944,40-40,40h-16c-22.056,0-40-17.944-40-40c0-30.88-25.128-56-56-56s-56,25.12-56,56c0,22.056-17.944,40-40,40
	s-40-17.944-40-40V240h8c39.704,0,72-32.304,72-72V16h-48V0h-16v48h16V32h32v64c0,35.288-28.712,64-64,64H84
	c-35.288,0-64-28.712-64-64V32h32v16h16V0H52v16H4v152c0,39.696,32.296,72,72,72h8v184c0,30.88,25.128,56,56,56s56-25.12,56-56
	c0-22.056,17.944-40,40-40s40,17.944,40,40c0,30.88,25.128,56,56,56h16c30.872,0,56-25.12,56-56v-80v-24v-0.72
	C426.696,315.464,444,295.776,444,272z M20,168v-24.208C34.6,163.296,57.816,176,84,176h16c26.184,0,49.4-12.704,64-32.208V168
	c0,30.88-25.128,56-56,56H76C45.128,224,20,198.88,20,168z"/>
<circle style="fill:#F7F7F7;" cx="396" cy="272" r="16"/>
<g>
</g>
<g>
</g>
<g>
</g>
<g>
</g>
<g>
</g>
<g>
</g>
<g>
</g>
<g>
</g>
<g>
</g>
<g>
</g>
<g>
</g>
<g>
</g>
<g>
</g>
<g>
</g>
<g>
</g>
</svg>
